<?xml version="1.0" encoding="UTF-8"?>
<svg id="Layer_2" data-name="Layer 2" xmlns="http://www.w3.org/2000/svg" viewBox="0 0 224.68 139.41">
  <defs>
    <style>
      .cls-1 {
        fill: #1d1d1b;
      }
    </style>
  </defs>
  <g>
    <path class="cls-1" d="m51.54,62.67v9.75c0,1.12-.03,2.21-.09,3.26s-.1,1.87-.14,2.46h.22c.75-1.24,1.84-2.28,3.26-3.13s3.24-1.28,5.44-1.28c3.44,0,6.19,1.19,8.24,3.57,2.05,2.38,3.07,5.92,3.07,10.62,0,3.09-.47,5.7-1.4,7.82-.94,2.12-2.26,3.73-3.96,4.81-1.71,1.09-3.72,1.63-6.04,1.63-2.17,0-3.96-.41-5.35-1.22-1.4-.81-2.47-1.8-3.22-2.97h-.33l-.85,3.69h-3.01v-39.02h4.16Zm8.03,14.54c-1.99,0-3.57.39-4.74,1.17s-2.01,1.95-2.52,3.51c-.51,1.56-.77,3.54-.77,5.93v.23c0,3.46.58,6.11,1.73,7.94,1.15,1.83,3.25,2.75,6.29,2.75,2.56,0,4.48-.94,5.75-2.81s1.92-4.55,1.92-8.02-.63-6.21-1.89-8c-1.26-1.79-3.19-2.68-5.78-2.68Z"/>
    <path class="cls-1" d="m90.52,73.7c.55,0,1.13.03,1.73.09.6.06,1.14.14,1.6.24l-.53,3.86c-.45-.12-.95-.21-1.5-.28-.55-.07-1.07-.1-1.55-.1-1.1,0-2.14.22-3.12.66-.98.44-1.83,1.08-2.57,1.91s-1.31,1.82-1.73,2.98-.63,2.45-.63,3.87v14.75h-4.19v-27.48h3.46l.45,5.07h.18c.57-1.02,1.25-1.95,2.06-2.8s1.73-1.52,2.8-2.02c1.06-.5,2.24-.75,3.55-.75Z"/>
    <path class="cls-1" d="m108.53,73.75c3.28,0,5.71.74,7.3,2.21s2.38,3.82,2.38,7.05v18.68h-3.04l-.8-4.06h-.2c-.77,1-1.57,1.84-2.41,2.52-.84.68-1.8,1.19-2.9,1.53-1.09.34-2.44.51-4.02.51-1.67,0-3.16-.29-4.45-.88s-2.32-1.47-3.06-2.66-1.12-2.69-1.12-4.51c0-2.74,1.09-4.85,3.26-6.32,2.17-1.47,5.48-2.27,9.93-2.41l4.74-.2v-1.68c0-2.37-.51-4.04-1.53-4.99-1.02-.95-2.46-1.43-4.31-1.43-1.44,0-2.81.21-4.11.63-1.3.42-2.54.91-3.71,1.48l-1.28-3.16c1.24-.64,2.66-1.18,4.26-1.63,1.61-.45,3.29-.68,5.07-.68Zm5.57,14.39l-4.19.18c-3.43.13-5.84.69-7.25,1.68-1.4.99-2.11,2.38-2.11,4.19,0,1.57.48,2.73,1.43,3.49.95.75,2.21,1.13,3.79,1.13,2.44,0,4.44-.68,5.99-2.03s2.33-3.39,2.33-6.09v-2.53Z"/>
    <path class="cls-1" d="m134.72,73.13c1.72,0,3.26.35,4.63,1.04s2.53,1.72,3.5,3.07h.2l.63-3.59h6.47v28.09c0,2.67-.53,4.92-1.58,6.75-1.05,1.82-2.62,3.2-4.7,4.14-2.08.94-4.66,1.4-7.74,1.4-1.97,0-3.81-.12-5.5-.36-1.7-.24-3.36-.67-4.98-1.29v-6.12c1.72.72,3.49,1.26,5.32,1.62,1.82.36,3.69.54,5.62.54s3.47-.53,4.44-1.59c.97-1.06,1.45-2.65,1.45-4.78v-.55c0-.57.03-1.16.08-1.78s.1-1.17.15-1.66h-.23c-.94,1.45-2.08,2.51-3.42,3.16-1.35.65-2.85.98-4.53.98-3.31,0-5.9-1.28-7.77-3.84-1.87-2.56-2.81-6.1-2.81-10.63s.96-8.18,2.87-10.75,4.55-3.85,7.91-3.85Zm2.41,6.22c-1.19,0-2.18.31-2.98.94-.8.63-1.4,1.57-1.81,2.82s-.6,2.83-.6,4.71c0,2.79.45,4.89,1.35,6.28.9,1.4,2.29,2.09,4.16,2.09.97,0,1.81-.13,2.53-.4.72-.27,1.32-.69,1.79-1.28.48-.58.83-1.35,1.07-2.31.23-.95.35-2.12.35-3.51v-.93c0-2.01-.21-3.63-.62-4.86-.41-1.24-1.04-2.14-1.91-2.71-.86-.57-1.98-.85-3.35-.85Z"/>
    <path class="cls-1" d="m168.86,73.08c3.76,0,6.64.82,8.65,2.46,2.01,1.64,3.01,4.13,3.01,7.47v18.68h-5.34l-1.48-3.81h-.2c-.8,1-1.62,1.82-2.46,2.46s-1.8,1.1-2.88,1.4c-1.09.3-2.41.45-3.96.45-1.66,0-3.14-.32-4.45-.95-1.31-.64-2.35-1.61-3.1-2.92-.75-1.31-1.13-2.98-1.13-5,0-2.98,1.04-5.17,3.13-6.58,2.09-1.41,5.22-2.19,9.4-2.34l4.87-.15v-1.23c0-1.47-.38-2.55-1.15-3.23-.77-.69-1.84-1.03-3.21-1.03s-2.68.19-3.99.58c-1.3.38-2.61.87-3.91,1.45l-2.53-5.17c1.49-.79,3.16-1.4,5-1.86,1.85-.45,3.76-.68,5.73-.68Zm4.06,15.62l-2.96.1c-2.47.07-4.19.51-5.15,1.33-.96.82-1.44,1.9-1.44,3.23,0,1.17.34,2,1.03,2.5.69.49,1.58.74,2.68.74,1.64,0,3.02-.48,4.15-1.45s1.69-2.35,1.69-4.14v-2.31Zm5.79-26.36v.53c-.49.47-1.12,1.04-1.91,1.73-.79.69-1.63,1.4-2.53,2.14-.9.74-1.79,1.45-2.66,2.13-.87.68-1.63,1.24-2.28,1.69h-5.09v-.68c.55-.64,1.19-1.39,1.92-2.27.73-.88,1.45-1.78,2.17-2.72.72-.94,1.32-1.79,1.81-2.56h8.58Z"/>
    <path class="cls-1" d="m207.18,93.36c0,1.91-.45,3.52-1.34,4.83s-2.23,2.31-4,2.98c-1.77.68-3.98,1.02-6.62,1.02-1.96,0-3.63-.13-5.03-.38-1.4-.25-2.8-.67-4.22-1.25v-6.32c1.52.69,3.16,1.25,4.9,1.69,1.75.44,3.28.66,4.6.66,1.49,0,2.55-.22,3.2-.66.64-.44.97-1.02.97-1.74,0-.47-.13-.89-.39-1.27-.26-.38-.82-.8-1.67-1.28s-2.19-1.1-4.01-1.87c-1.75-.74-3.2-1.48-4.33-2.23s-1.96-1.64-2.51-2.67c-.54-1.03-.82-2.34-.82-3.92,0-2.59,1.01-4.54,3.02-5.86s4.71-1.97,8.09-1.97c1.74,0,3.4.18,4.98.53s3.21.91,4.88,1.68l-2.31,5.52c-1.39-.6-2.7-1.1-3.92-1.48-1.23-.38-2.48-.58-3.75-.58-1.12,0-1.96.15-2.53.45-.57.3-.85.76-.85,1.38,0,.45.15.85.44,1.2.29.35.86.74,1.71,1.17.84.43,2.09.97,3.72,1.64,1.59.65,2.97,1.33,4.14,2.04,1.17.71,2.07,1.59,2.71,2.63.64,1.04.95,2.4.95,4.05Z"/>
  </g>
  <g>
    <path class="cls-1" d="m155.49,108.6c.56,0,.98.14,1.26.42.28.28.42.73.42,1.35v3.42h-.37l-.08-.89h-.03c-.11.19-.24.36-.4.51s-.35.26-.57.35c-.23.08-.5.13-.83.13s-.61-.05-.84-.16c-.23-.11-.41-.27-.54-.48-.13-.21-.19-.46-.19-.76,0-.51.21-.89.63-1.16.42-.26,1.02-.41,1.8-.45l.95-.05v-.37c0-.52-.1-.89-.31-1.12s-.51-.33-.91-.33c-.26,0-.51.03-.76.1s-.49.16-.74.29l-.15-.39c.24-.12.51-.21.79-.29.28-.07.57-.11.88-.11Zm1.2,2.59l-.89.04c-.65.03-1.14.15-1.48.35-.34.2-.51.5-.51.9,0,.32.1.57.3.74s.48.26.84.26c.56,0,.99-.16,1.28-.48.3-.32.45-.75.45-1.3v-.5Z"/>
    <path class="cls-1" d="m162.18,116.04v-2.23c0-.14,0-.31,0-.51,0-.2.01-.37.02-.51h-.03c-.12.31-.33.57-.64.78-.3.21-.68.31-1.14.31-.65,0-1.16-.22-1.52-.67-.36-.45-.54-1.1-.54-1.97,0-.52.08-.99.24-1.38.16-.4.4-.71.73-.94.32-.22.72-.34,1.2-.34.44,0,.79.1,1.07.29s.47.42.6.7h.03l.08-.89h.38v7.35h-.47Zm-1.72-2.56c.4,0,.73-.08.98-.25.25-.17.44-.42.56-.74.12-.32.18-.72.19-1.18v-.12c0-.71-.13-1.25-.39-1.62-.26-.37-.68-.55-1.25-.55s-1,.2-1.29.6c-.29.4-.44.95-.44,1.66s.14,1.27.41,1.65.68.57,1.23.57Z"/>
    <path class="cls-1" d="m168.18,108.69v5.1h-.38l-.07-.92h-.03c-.09.19-.21.36-.37.51-.16.15-.35.28-.59.37-.23.09-.5.14-.81.14-.39,0-.72-.07-.98-.2-.26-.14-.46-.34-.6-.62-.13-.28-.2-.62-.2-1.03v-3.34h.47v3.29c0,.51.11.88.34,1.12.23.24.57.36,1.01.36.38,0,.69-.07.94-.22s.45-.36.58-.65.2-.66.2-1.09v-2.81h.47Z"/>
    <path class="cls-1" d="m171.67,108.59c.43,0,.8.1,1.08.3s.5.48.65.83c.14.35.21.76.21,1.21v.34h-3.68c0,.7.16,1.24.48,1.61.32.38.79.56,1.39.56.32,0,.59-.03.82-.08.23-.05.49-.14.78-.27v.44c-.25.11-.5.19-.75.25s-.54.08-.86.08c-.52,0-.95-.11-1.3-.32s-.61-.52-.79-.91c-.18-.39-.27-.85-.27-1.37s.09-.97.26-1.37.42-.73.75-.96.74-.35,1.22-.35Zm0,.41c-.49,0-.88.16-1.18.49s-.48.79-.53,1.4h3.17c0-.37-.05-.7-.16-.98-.11-.28-.27-.51-.48-.66-.21-.16-.49-.24-.82-.24Z"/>
    <path class="cls-1" d="m176.92,113.88c-.51,0-.93-.11-1.28-.32s-.61-.51-.79-.9c-.18-.39-.27-.86-.27-1.39s.1-1.04.3-1.44.49-.7.86-.92c.37-.21.8-.32,1.3-.32.24,0,.47.02.68.07.21.04.4.1.57.18l-.13.42c-.18-.08-.36-.14-.56-.18-.2-.04-.39-.06-.57-.06-.42,0-.77.09-1.07.27-.29.18-.52.44-.67.78-.15.34-.23.73-.23,1.19,0,.43.07.81.2,1.14.13.33.33.59.6.78.27.19.62.28,1.05.28.25,0,.48-.03.71-.08s.43-.11.61-.19v.43c-.17.08-.36.14-.57.19-.22.05-.46.07-.74.07Z"/>
    <path class="cls-1" d="m181.22,108.59c.43,0,.8.1,1.08.3s.5.48.65.83c.14.35.21.76.21,1.21v.34h-3.68c0,.7.16,1.24.48,1.61.32.38.79.56,1.39.56.32,0,.59-.03.82-.08.23-.05.49-.14.78-.27v.44c-.25.11-.5.19-.75.25s-.54.08-.86.08c-.52,0-.95-.11-1.3-.32s-.61-.52-.79-.91c-.18-.39-.27-.85-.27-1.37s.09-.97.26-1.37.42-.73.75-.96.74-.35,1.22-.35Zm0,.41c-.49,0-.88.16-1.18.49s-.48.79-.53,1.4h3.17c0-.37-.05-.7-.16-.98-.11-.28-.27-.51-.48-.66-.21-.16-.49-.24-.82-.24Z"/>
    <path class="cls-1" d="m186.27,113.88c-.7,0-1.23-.22-1.59-.66-.36-.44-.55-1.08-.55-1.92s.19-1.55.58-2.02c.38-.46.92-.69,1.61-.69.29,0,.55.04.77.14s.4.21.55.37c.15.15.26.33.34.53h.04c-.01-.17-.02-.34-.03-.54,0-.19,0-.37,0-.52v-2.07h.47v7.29h-.38l-.06-.93h-.03c-.08.19-.2.36-.35.52s-.33.28-.56.37c-.22.09-.49.14-.8.14Zm.05-.41c.6,0,1.03-.19,1.28-.56.25-.37.38-.91.38-1.6v-.08c0-.72-.13-1.27-.38-1.65-.25-.38-.67-.57-1.24-.57s-1,.2-1.3.59-.45.97-.45,1.72c0,.71.14,1.24.42,1.61.28.37.71.55,1.28.55Z"/>
    <path class="cls-1" d="m194.22,111.23c0,.39-.05.75-.15,1.08-.1.32-.24.6-.43.84s-.43.42-.71.54-.61.19-.99.19-.67-.06-.95-.19c-.28-.13-.51-.31-.71-.54s-.34-.51-.44-.84c-.1-.32-.15-.68-.15-1.08,0-.55.09-1.02.27-1.41s.45-.7.79-.91c.34-.21.75-.32,1.23-.32s.91.11,1.23.33c.33.22.58.53.74.93.17.4.25.85.25,1.37Zm-4.03,0c0,.45.06.84.19,1.17.13.33.32.6.58.78s.59.28.99.28.75-.09,1.01-.28.46-.45.58-.79c.12-.34.19-.73.19-1.17s-.06-.81-.18-1.14c-.12-.33-.31-.6-.56-.79s-.59-.29-1-.29c-.59,0-1.04.2-1.34.59-.3.39-.46.94-.46,1.63Z"/>
    <path class="cls-1" d="m197.5,108.6c.13,0,.26,0,.38.02.12.02.23.04.33.07l-.08.44c-.1-.03-.21-.05-.31-.06-.11-.01-.22-.02-.34-.02-.24,0-.46.05-.64.14-.19.09-.35.22-.48.39-.13.17-.23.37-.3.61s-.1.5-.1.8v2.81h-.48v-5.1h.41l.05.96h.03c.08-.2.19-.37.33-.53.14-.16.31-.28.52-.38s.43-.14.69-.14Z"/>
    <path class="cls-1" d="m201,108.59c.43,0,.8.1,1.08.3s.5.48.65.83c.14.35.21.76.21,1.21v.34h-3.68c0,.7.16,1.24.48,1.61.32.38.79.56,1.39.56.32,0,.59-.03.82-.08.23-.05.49-.14.78-.27v.44c-.25.11-.5.19-.75.25s-.54.08-.86.08c-.52,0-.95-.11-1.3-.32s-.61-.52-.79-.91c-.18-.39-.27-.85-.27-1.37s.09-.97.26-1.37.42-.73.75-.96.74-.35,1.22-.35Zm0,.41c-.49,0-.88.16-1.18.49s-.48.79-.53,1.4h3.17c0-.37-.05-.7-.16-.98-.11-.28-.27-.51-.48-.66-.21-.16-.49-.24-.82-.24Z"/>
    <path class="cls-1" d="m207.38,112.45c0,.3-.08.56-.23.78-.15.21-.37.38-.66.49-.29.11-.65.17-1.07.17-.35,0-.67-.03-.95-.09s-.51-.14-.7-.23v-.47c.23.12.49.21.78.28.28.07.58.11.88.11.53,0,.9-.09,1.13-.27.23-.18.35-.42.35-.73,0-.2-.06-.37-.17-.5s-.28-.25-.49-.34c-.21-.1-.47-.2-.77-.29-.31-.11-.59-.21-.83-.32-.24-.11-.43-.24-.57-.42-.14-.17-.21-.41-.21-.71,0-.41.16-.73.49-.96s.77-.34,1.32-.34c.31,0,.59.03.86.09.26.06.5.13.72.22l-.17.4c-.19-.09-.42-.16-.67-.22-.25-.06-.51-.08-.76-.08-.42,0-.74.07-.97.22-.23.15-.35.36-.35.65,0,.22.06.39.17.51.11.12.27.23.48.31.21.08.46.17.75.27.3.1.57.21.82.32.25.11.45.26.6.44.15.18.22.42.22.73Z"/>
  </g>
  <g>
    <path class="cls-1" d="m52.47,34.93s0,0,0,0c0,0,0,0,0,0Z"/>
    <path class="cls-1" d="m55.17,119.28c-25.76.66-29.91-39.37-16.42-63.53,1.17-2.09,1.92-3.79,3.04-5.6,9.57-15.4,24.59-21.28,3.94-35.28-.02-.01-.02-.04-.04-.05-3.26-2.64-3.57.15-4.01,3.18,0,.02.01.04,0,.07-4.31,24.25-26.52,44.34-24.14,70.84,6.55,48.64,49.44,30.07,37.63,30.37Z"/>
  </g>
</svg>