<?xml version="1.0" encoding="UTF-8"?>
<svg id="Layer_2" data-name="Layer 2" xmlns="http://www.w3.org/2000/svg" viewBox="0 0 224.68 172.15">
  <defs>
    <style>
      .cls-1 {
        fill: #1d1d1b;
      }
    </style>
  </defs>
  <g>
    <path class="cls-1" d="m114.4,29.48s0,0,0,0c0,0,0,0,0,0Z"/>
    <path class="cls-1" d="m143.13,68.8c.06-17.34-15.3-31.27-31.9-29.01-1.26.11-.77,1.29.31,1.54,16.92,4.01,26.28,21.88,23.48,38.25-1.58,9.22-9.14,16.44-18.49,16.67-20.39.52-23.68-31.17-13-50.3.92-1.65,1.52-3,2.4-4.43,7.58-12.19,19.47-16.84,3.12-27.93-.01,0-.02-.03-.03-.04-2.58-2.09-2.83.12-3.18,2.52,0,.02.01.03,0,.05-3.42,19.2-20.99,35.1-19.11,56.08,5.18,38.51,57.88,42.06,56.38-3.41Z"/>
  </g>
  <g>
    <path class="cls-1" d="m36.78,103.73v9.75c0,1.12-.03,2.21-.09,3.26-.06,1.05-.1,1.87-.14,2.46h.23c.75-1.24,1.84-2.28,3.26-3.13s3.24-1.28,5.44-1.28c3.44,0,6.19,1.19,8.24,3.57,2.05,2.38,3.07,5.92,3.07,10.62,0,3.09-.47,5.7-1.4,7.82-.94,2.12-2.26,3.73-3.96,4.82s-3.72,1.63-6.04,1.63c-2.17,0-3.96-.41-5.35-1.22-1.4-.81-2.47-1.8-3.22-2.97h-.33l-.85,3.69h-3.01v-39.02h4.16Zm8.02,14.54c-1.99,0-3.57.39-4.74,1.17-1.17.78-2.01,1.95-2.52,3.51s-.76,3.54-.76,5.93v.23c0,3.46.58,6.11,1.73,7.94,1.15,1.83,3.25,2.75,6.29,2.75,2.56,0,4.48-.94,5.75-2.81,1.28-1.87,1.92-4.55,1.92-8.02s-.63-6.21-1.89-8c-1.26-1.79-3.19-2.68-5.78-2.68Z"/>
    <path class="cls-1" d="m75.76,114.77c.55,0,1.13.03,1.73.09.6.06,1.14.14,1.6.24l-.53,3.86c-.45-.12-.95-.21-1.5-.28-.55-.07-1.07-.1-1.55-.1-1.1,0-2.14.22-3.12.66-.98.44-1.83,1.08-2.57,1.91-.74.83-1.31,1.82-1.73,2.98s-.63,2.45-.63,3.87v14.75h-4.19v-27.48h3.46l.45,5.07h.18c.57-1.02,1.25-1.95,2.06-2.8.8-.84,1.73-1.52,2.8-2.02,1.06-.5,2.24-.75,3.55-.75Z"/>
    <path class="cls-1" d="m93.77,114.82c3.28,0,5.71.74,7.3,2.21,1.59,1.47,2.38,3.82,2.38,7.05v18.68h-3.03l-.8-4.06h-.2c-.77,1-1.57,1.84-2.41,2.52-.84.68-1.8,1.19-2.9,1.53-1.1.34-2.44.51-4.03.51-1.67,0-3.16-.29-4.45-.88s-2.32-1.47-3.06-2.66c-.74-1.19-1.12-2.69-1.12-4.51,0-2.74,1.09-4.85,3.26-6.32,2.17-1.47,5.48-2.27,9.93-2.41l4.74-.2v-1.68c0-2.37-.51-4.04-1.53-4.99-1.02-.95-2.46-1.43-4.31-1.43-1.44,0-2.81.21-4.11.63-1.3.42-2.54.91-3.71,1.48l-1.28-3.16c1.24-.63,2.66-1.18,4.26-1.63,1.6-.45,3.29-.68,5.07-.68Zm5.57,14.39l-4.19.17c-3.43.13-5.84.69-7.25,1.68s-2.11,2.38-2.11,4.19c0,1.57.48,2.73,1.43,3.49.95.75,2.21,1.13,3.79,1.13,2.44,0,4.44-.68,5.99-2.03,1.55-1.35,2.33-3.38,2.33-6.09v-2.53Z"/>
    <path class="cls-1" d="m119.96,114.19c1.72,0,3.26.35,4.63,1.04,1.36.69,2.53,1.72,3.5,3.07h.2l.63-3.59h6.47v28.09c0,2.67-.53,4.92-1.58,6.75-1.05,1.82-2.62,3.2-4.7,4.14-2.08.94-4.66,1.4-7.74,1.4-1.97,0-3.81-.12-5.5-.36-1.7-.24-3.36-.67-4.98-1.29v-6.12c1.72.72,3.49,1.26,5.32,1.62s3.69.54,5.62.54,3.47-.53,4.44-1.59c.97-1.06,1.45-2.65,1.45-4.78v-.55c0-.57.03-1.16.08-1.78.05-.62.1-1.17.15-1.66h-.23c-.94,1.45-2.08,2.51-3.42,3.16-1.35.65-2.85.98-4.53.98-3.31,0-5.9-1.28-7.77-3.84-1.87-2.56-2.81-6.1-2.81-10.63s.96-8.18,2.87-10.75,4.55-3.85,7.91-3.85Zm2.41,6.22c-1.19,0-2.18.31-2.98.94s-1.4,1.57-1.81,2.82-.6,2.83-.6,4.71c0,2.79.45,4.89,1.35,6.28.9,1.4,2.29,2.09,4.16,2.09.97,0,1.81-.13,2.53-.4s1.32-.69,1.79-1.28c.48-.58.83-1.35,1.07-2.31.23-.95.35-2.12.35-3.51v-.93c0-2.01-.21-3.63-.61-4.86-.41-1.24-1.05-2.14-1.91-2.71-.86-.57-1.98-.85-3.35-.85Z"/>
    <path class="cls-1" d="m154.09,114.14c3.76,0,6.65.82,8.65,2.46,2.01,1.64,3.01,4.13,3.01,7.47v18.68h-5.34l-1.48-3.81h-.2c-.8,1-1.62,1.82-2.46,2.46-.84.63-1.8,1.1-2.88,1.4-1.09.3-2.41.45-3.96.45-1.66,0-3.14-.32-4.45-.95-1.31-.63-2.34-1.61-3.1-2.92-.75-1.31-1.13-2.98-1.13-5,0-2.97,1.04-5.17,3.13-6.58,2.09-1.41,5.22-2.19,9.4-2.34l4.87-.15v-1.23c0-1.47-.38-2.55-1.15-3.23-.77-.69-1.84-1.03-3.21-1.03s-2.68.19-3.99.58c-1.3.38-2.61.87-3.91,1.45l-2.53-5.17c1.49-.79,3.16-1.4,5-1.86s3.76-.68,5.73-.68Zm4.06,15.62l-2.96.1c-2.47.07-4.19.51-5.15,1.33-.96.82-1.44,1.9-1.44,3.24,0,1.17.34,2,1.03,2.5s1.58.74,2.68.74c1.64,0,3.02-.48,4.15-1.45,1.13-.97,1.69-2.35,1.69-4.14v-2.31Zm5.79-26.36v.53c-.49.47-1.12,1.04-1.91,1.73s-1.63,1.4-2.53,2.14c-.9.74-1.79,1.45-2.66,2.13-.87.68-1.63,1.24-2.28,1.69h-5.09v-.68c.55-.63,1.19-1.39,1.92-2.27.73-.88,1.45-1.78,2.17-2.72.72-.94,1.32-1.79,1.8-2.56h8.58Z"/>
    <path class="cls-1" d="m192.42,134.43c0,1.91-.45,3.51-1.34,4.83-.89,1.31-2.23,2.31-4,2.98-1.77.68-3.98,1.02-6.62,1.02-1.96,0-3.63-.13-5.03-.38-1.4-.25-2.8-.67-4.23-1.25v-6.32c1.52.69,3.16,1.25,4.9,1.69,1.75.44,3.28.66,4.6.66,1.49,0,2.55-.22,3.2-.66.64-.44.97-1.02.97-1.74,0-.47-.13-.89-.39-1.27-.26-.38-.81-.8-1.67-1.28-.85-.48-2.19-1.1-4.01-1.87-1.76-.74-3.2-1.48-4.33-2.23-1.13-.75-1.96-1.64-2.51-2.67-.54-1.03-.81-2.34-.81-3.92,0-2.59,1.01-4.54,3.02-5.86s4.71-1.97,8.09-1.97c1.74,0,3.4.18,4.98.53,1.58.35,3.21.91,4.88,1.68l-2.31,5.52c-1.39-.6-2.7-1.09-3.92-1.48s-2.48-.58-3.75-.58c-1.12,0-1.96.15-2.53.45-.57.3-.85.76-.85,1.38,0,.45.15.85.44,1.2.29.35.86.74,1.71,1.17.84.43,2.08.97,3.72,1.64,1.59.65,2.97,1.33,4.14,2.04,1.17.71,2.07,1.59,2.71,2.63.63,1.04.95,2.39.95,4.05Z"/>
  </g>
  <g>
    <path class="cls-1" d="m35.32,147.64c.77,0,1.35.19,1.73.58.38.39.57,1,.57,1.85v4.7h-.5l-.12-1.22h-.04c-.15.26-.33.5-.55.7s-.48.36-.79.48c-.31.12-.69.17-1.14.17s-.84-.08-1.16-.23-.57-.37-.74-.66-.26-.64-.26-1.05c0-.7.29-1.23.86-1.59.58-.36,1.4-.57,2.48-.62l1.3-.06v-.51c0-.72-.14-1.23-.43-1.53-.28-.31-.7-.46-1.26-.46-.36,0-.71.05-1.04.14s-.67.22-1.01.4l-.21-.54c.34-.16.7-.29,1.08-.39.38-.1.79-.16,1.21-.16Zm1.65,3.57l-1.22.05c-.89.04-1.57.2-2.03.48-.46.27-.7.69-.7,1.24,0,.44.14.78.42,1.02s.66.35,1.16.35c.77,0,1.36-.22,1.76-.66s.61-1.04.62-1.79v-.69Z"/>
    <path class="cls-1" d="m44.53,157.87v-3.07c0-.19,0-.43.01-.7s.02-.5.03-.7h-.04c-.17.43-.46.79-.88,1.07-.42.29-.94.43-1.57.43-.9,0-1.6-.31-2.09-.92-.5-.61-.74-1.52-.74-2.71,0-.72.11-1.36.33-1.9.22-.55.55-.98,1-1.29.44-.31,1-.46,1.65-.46.6,0,1.09.13,1.47.4s.65.58.82.96h.04l.1-1.22h.52v10.11h-.65Zm-2.37-3.53c.55,0,1-.12,1.35-.35.35-.23.6-.57.77-1.02.17-.44.25-.99.25-1.62v-.17c0-.98-.18-1.72-.54-2.23-.36-.51-.93-.76-1.71-.76s-1.37.27-1.77.82-.6,1.31-.6,2.28.19,1.74.56,2.27c.37.52.94.78,1.69.78Z"/>
    <path class="cls-1" d="m52.78,147.76v7.01h-.53l-.1-1.26h-.04c-.12.26-.29.49-.51.7-.22.21-.49.38-.81.5-.32.12-.69.19-1.11.19-.54,0-.99-.09-1.35-.28-.36-.19-.64-.47-.82-.85-.19-.38-.28-.85-.28-1.42v-4.59h.65v4.53c0,.7.16,1.22.47,1.55.32.33.78.5,1.39.5.52,0,.95-.1,1.3-.3.35-.2.62-.5.8-.9.18-.4.27-.9.27-1.5v-3.87h.65Z"/>
    <path class="cls-1" d="m57.58,147.62c.6,0,1.09.14,1.49.42.4.28.69.66.89,1.15.2.49.29,1.04.29,1.67v.47h-5.06c0,.96.22,1.7.67,2.22.44.52,1.08.77,1.91.77.43,0,.81-.04,1.13-.11.32-.07.68-.19,1.07-.36v.6c-.34.15-.69.27-1.03.34s-.74.11-1.19.11c-.71,0-1.3-.15-1.78-.44-.48-.29-.84-.71-1.08-1.25-.24-.54-.36-1.16-.36-1.88s.12-1.33.35-1.89.58-1,1.03-1.32c.45-.33,1.01-.49,1.67-.49Zm0,.56c-.67,0-1.21.22-1.63.67-.42.44-.66,1.09-.73,1.92h4.37c0-.51-.07-.96-.22-1.35-.15-.39-.37-.7-.66-.91-.29-.22-.67-.33-1.12-.33Z"/>
    <path class="cls-1" d="m64.79,154.9c-.7,0-1.28-.15-1.76-.44s-.84-.7-1.08-1.24c-.24-.54-.36-1.18-.36-1.92s.14-1.43.42-1.98.67-.97,1.18-1.26c.51-.29,1.1-.44,1.79-.44.33,0,.65.03.93.09.29.06.55.14.78.25l-.17.57c-.24-.11-.5-.19-.77-.25s-.53-.08-.78-.08c-.58,0-1.06.13-1.47.38-.4.25-.71.61-.92,1.07-.21.46-.32,1.01-.32,1.63,0,.59.09,1.11.27,1.56.18.45.46.81.83,1.07.37.26.85.39,1.44.39.34,0,.66-.03.97-.1.31-.07.59-.16.84-.26v.59c-.23.1-.49.19-.79.25s-.64.1-1.02.1Z"/>
    <path class="cls-1" d="m70.71,147.62c.6,0,1.09.14,1.49.42.4.28.69.66.89,1.15.2.49.29,1.04.29,1.67v.47h-5.06c0,.96.22,1.7.67,2.22.44.52,1.08.77,1.91.77.43,0,.81-.04,1.13-.11.32-.07.68-.19,1.07-.36v.6c-.34.15-.69.27-1.03.34s-.74.11-1.19.11c-.71,0-1.3-.15-1.78-.44-.48-.29-.84-.71-1.08-1.25-.24-.54-.36-1.16-.36-1.88s.12-1.33.35-1.89.58-1,1.03-1.32c.45-.33,1.01-.49,1.67-.49Zm0,.56c-.67,0-1.21.22-1.63.67-.42.44-.66,1.09-.73,1.92h4.37c0-.51-.07-.96-.22-1.35-.15-.39-.37-.7-.66-.91-.29-.22-.67-.33-1.12-.33Z"/>
    <path class="cls-1" d="m77.65,154.9c-.96,0-1.69-.3-2.19-.91-.5-.6-.75-1.48-.75-2.64s.26-2.14.79-2.77c.53-.64,1.27-.95,2.21-.95.4,0,.76.06,1.05.19.3.12.55.29.75.51s.36.45.47.73h.05c-.02-.23-.03-.47-.04-.74s-.01-.5-.01-.72v-2.85h.65v10.03h-.53l-.08-1.28h-.04c-.12.26-.28.49-.48.71-.2.22-.46.39-.76.51-.3.13-.67.19-1.1.19Zm.07-.57c.83,0,1.41-.26,1.76-.77.35-.51.52-1.25.52-2.2v-.1c0-.99-.17-1.75-.52-2.27-.35-.53-.92-.79-1.7-.79s-1.37.27-1.78.81-.62,1.33-.62,2.36c0,.97.19,1.71.58,2.21.38.5.97.75,1.76.75Z"/>
    <path class="cls-1" d="m88.59,151.25c0,.54-.07,1.04-.2,1.48-.13.45-.33.83-.59,1.15-.26.32-.59.57-.98.75-.39.18-.84.26-1.36.26s-.93-.09-1.31-.26c-.38-.17-.71-.42-.97-.75-.26-.32-.47-.71-.6-1.15-.14-.45-.21-.94-.21-1.49,0-.75.13-1.4.38-1.94.25-.54.61-.96,1.08-1.25s1.04-.44,1.69-.44,1.25.15,1.7.46c.45.31.79.73,1.02,1.28.23.55.34,1.17.34,1.89Zm-5.54,0c0,.61.09,1.15.26,1.61.18.46.44.82.8,1.08.36.26.81.39,1.36.39s1.02-.13,1.39-.39.63-.62.8-1.08c.17-.46.26-1,.26-1.61s-.08-1.11-.25-1.57c-.16-.46-.42-.82-.77-1.09-.35-.26-.81-.4-1.38-.4-.81,0-1.43.27-1.85.81-.42.54-.63,1.29-.63,2.24Z"/>
    <path class="cls-1" d="m93.11,147.64c.18,0,.36.01.52.03.16.02.32.05.46.09l-.1.6c-.14-.04-.29-.07-.43-.09-.15-.02-.3-.03-.47-.03-.33,0-.63.06-.89.19-.26.12-.48.3-.66.54-.18.23-.32.51-.41.84-.09.33-.14.69-.14,1.1v3.87h-.66v-7.01h.56l.06,1.32h.04c.11-.27.26-.51.45-.73.2-.22.43-.39.71-.52s.6-.19.95-.19Z"/>
    <path class="cls-1" d="m97.91,147.62c.6,0,1.09.14,1.49.42.4.28.69.66.89,1.15.2.49.29,1.04.29,1.67v.47h-5.06c0,.96.22,1.7.67,2.22.44.52,1.08.77,1.91.77.43,0,.81-.04,1.13-.11.32-.07.68-.19,1.07-.36v.6c-.34.15-.69.27-1.03.34s-.74.11-1.19.11c-.71,0-1.3-.15-1.78-.44-.48-.29-.84-.71-1.08-1.25-.24-.54-.36-1.16-.36-1.88s.12-1.33.35-1.89.58-1,1.03-1.32c.45-.33,1.01-.49,1.67-.49Zm0,.56c-.67,0-1.21.22-1.63.67-.42.44-.66,1.09-.73,1.92h4.37c0-.51-.07-.96-.22-1.35-.15-.39-.37-.7-.66-.91-.29-.22-.67-.33-1.12-.33Z"/>
    <path class="cls-1" d="m106.7,152.93c0,.42-.1.77-.31,1.07-.21.29-.51.52-.91.67-.4.15-.89.23-1.48.23-.49,0-.92-.04-1.3-.13s-.7-.19-.96-.32v-.65c.32.16.68.29,1.07.39.39.1.79.15,1.21.15.72,0,1.24-.12,1.56-.37.32-.25.48-.58.48-1.01,0-.28-.08-.51-.24-.69-.16-.18-.38-.34-.67-.47-.29-.13-.64-.27-1.06-.41-.43-.15-.81-.29-1.14-.43-.33-.14-.59-.34-.78-.57-.19-.24-.28-.56-.28-.98,0-.56.23-1,.68-1.32s1.06-.47,1.82-.47c.42,0,.81.04,1.18.12.36.08.69.18.99.31l-.23.55c-.27-.12-.57-.23-.92-.3-.35-.08-.7-.12-1.04-.12-.57,0-1.02.1-1.34.3-.32.2-.48.5-.48.89,0,.3.08.54.23.71s.38.31.66.42c.29.11.63.24,1.03.38.41.14.79.29,1.13.44.35.16.62.35.83.6.21.25.31.58.31,1Z"/>
  </g>
</svg>