<?xml version="1.0" encoding="UTF-8"?>
<svg id="Layer_2" data-name="Layer 2" xmlns="http://www.w3.org/2000/svg" viewBox="0 0 232.27 128.09">
  <defs>
    <style>
      .cls-1 {
        fill: #e94e2e;
      }
    </style>
  </defs>
  <path class="cls-1" d="m107.6,33.94s0,0,0,0c0,0,0,0,0,0Z"/>
  <path class="cls-1" d="m136.34,73.26c.06-17.34-15.3-31.27-31.9-29.01-1.26.11-.77,1.29.31,1.54,16.92,4.01,26.28,21.88,23.48,38.25-1.58,9.22-9.14,16.44-18.49,16.67-20.39.52-23.68-31.17-13-50.3.92-1.65,1.52-3,2.4-4.43,7.58-12.19,19.47-16.84,3.12-27.93-.01,0-.02-.03-.03-.04-2.58-2.09-2.83.12-3.18,2.52,0,.02.01.03,0,.05-3.42,19.2-20.99,35.1-19.11,56.08,5.18,38.51,57.88,42.06,56.38-3.41Z"/>
</svg>